<?xml version="1.0" encoding="utf-8"?>
<!-- Generator: Adobe Illustrator 21.0.0, SVG Export Plug-In . SVG Version: 6.00 Build 0)  -->
<svg version="1.1" xmlns="http://www.w3.org/2000/svg" xmlns:xlink="http://www.w3.org/1999/xlink" x="0px" y="0px"
	 viewBox="0 0 1920 1080" style="enable-background:new 0 0 1920 1080;" xml:space="preserve">
<style type="text/css">
	.st0{fill:#FF151B;}
	.st1{fill:url(#icon-s1_1_);}
	.st2{fill:url(#icon-s2_1_);}
	.st3{fill:url(#sun2_1_);}
	.st4{fill:url(#sun1_1_);}
	.st5{fill:url(#seb_1_);}
	.st6{fill:url(#hand-s1_1_);}
	.st7{fill:url(#lily2_1_);}
	.st8{fill:url(#lily1_1_);}
	.st9{fill:url(#fire4_1_);}
	.st10{fill:url(#fire3_1_);}
	.st11{fill:url(#ruvik_1_);}
	.st12{fill:url(#hand-s2_1_);}
	.st13{fill:url(#fire2_1_);}
	.st14{fill:url(#fire1_1_);}
</style>
<g id="圖層_1">
</g>
<g id="icon">
</g>
<g id="scene1">
	<linearGradient id="sun2_1_" gradientUnits="userSpaceOnUse" x1="957.2946" y1="1080" x2="957.2946" y2="173.6039">
		<stop  offset="0" style="stop-color:#C7F0F2"/>
		<stop  offset="0.2394" style="stop-color:#CAEFEE"/>
		<stop  offset="0.4758" style="stop-color:#D1ECE2"/>
		<stop  offset="0.7111" style="stop-color:#DEE7CE"/>
		<stop  offset="0.9444" style="stop-color:#F0E0B3"/>
		<stop  offset="1" style="stop-color:#F5DEAB"/>
	</linearGradient>
	<path id="sun2" class="st3" d="M1819.8,1009.8c-111.8-27.4-76.1-2.2-158.6-40.2c-37.9-17.5-60.8,18.5-98.9-29.3
		c2-24-43.3-27.6-96.4-40.2c-2.1-53.1-171.6-111.7-169.6-119.7c6-25-205.7-59.8-199.7-84.8c5.5-21-55.8-50-43.8-66.5
		c-5.6-0.8-13-1.4-17.6,0c0,0,2.5-3.9,9.2-5.7l-11.7-5c0,0,3.5-12.1,15.6-16.1c0,0,7.4-10-17-3.7c0,0-1.8-8.8,8.5-14.2
		c0,0,0.7-5.7-8.5-2.8c0,0,0.7-15.2-2.5-23c0,0-3.5,5.7-6.4,10.3c0,0-1.4,0.4-10.3,3.9c0,0-3.2-0.7-7.4,0.4c0,0-3.2-30.1-9.6-35.4
		c0,0-15.9,20.9-20.2,31.1c0,0,1.8-17.7-2.5-24.8c0,0-14.9,8.8-15.9,21.2c0,0-0.4-1.1-5.7,7.1c0,0,3.5-12.4-9.6-29
		c0,0-7.6,41.8-8.5,28.7c-0.1-1.8-12-11-11-22.3c0,0-8.8,4.3-7.8,18.3c0,0-2.7,1.4-8.7-3.4c0,0-5.2,3.1-6.3,7.3
		c0,0.5-0.2,0.9-0.2,0.9c0-0.3,0.1-0.6,0.2-0.9c0-1.2-1.4-2.9-10.3,1.1c0,0-9.3,4.2-11.1,9.8c0,0-1.1-0.4-4.4-0.9
		c-3.3-0.4-7.3-14-2.7-18.2c0,0-12.6,0.7-13.1,10l-7.3,0.2c0,0-3.8-3.1,2.2-13.5l-8.2,2c0,0-8.2-10-14.6-16
		c-6.4-6,16.2-9.5,23.3-9.5s-7.6-18.6-20.4-16.2c0,0-0.1,0-0.1,0c-3.1,0.8-3.9,0.7,0,0c6.7-1.8,24-7.9,26.3-21.5
		c0.3-1.6,6.5-17.8-58.1-16.5c0,0,35.9-9.8,41.9-27.3s-7.3-7.8-7.3-7.8l-18.6,5.8c0,0,6.3-8.9,9.4-19.1s0.5-12,0.5-12
		s-9.4,6.3-11.8,7.3c0,0,2.5-13.3,1.4-19.5c0,0-18.2,3.5-25.6,11.6c0,0,2.5-11.8-2.1-20.5c-4.5-8.7-8.5,7-8.5,7s4.1-24-13-29.8
		c0,0-10.1,3.9-19.4,35.6c0,0,3.9-39.3-13.9-36.8c0,0-7.2,23-7.7,33.9c0,0-12.8-24.4-24.8-30.8c0,0-10.1,15.7-6.2,30
		c0,0-19-19-19.4-24c0,0-3.7,16.5-2.1,25c0,0-14.7-7-19-9.5c0,0-1.2,24.8,1.2,29c0,0-14.9-10.3-16.8-18c0,0-2.9,19.2,7.4,27.7
		c0,0-3.9,5.8,3.7,12.4c0,0-18.9-8.2-40,2.5c0,0,8.3,25.8,22.5,34.4c0,0,0,0.4-10.3,8.6c0,0,16,9.5,23.3,10.3c0,0-8.6,0.4-12.9,9.9
		c0,0,6,6.5,13.4,8.2c0,0-6.5,0.1-8.6,13c0,0,11.2,2.6,22.9,0c0,0,3.9-1.3-3,15.5c0,0-1.7,2.6-3,15.5c0,0-6,7.8,9.5-1.7
		c0,0-6.1,14.1-3.1,24.7c0,0,15.3-0.3,31-12.3L691,680c0,0-3.3-4.7-11.7-1.7c0,0,1-6.7-0.7-14.3c0,0-8.7,6-11,12
		c0,0-3.3-10-7.7-13.7c0,0-9,3.7-10.7,9c0,0,0.7-14.3-6.3-19.3c0,0-5,2-6.3,10c0,0-10-6.7-22-7c0,0-14,7-15,21.3c0,0-5.3,0.3-11,7.3
		c0,0-7.3-5.7-17-2.7l-8.3-1.3c0,0,24.3-11.7,27.3-23.7c0,0-15.7,0.3-23,7c0,0,8.3-20.7,10-26.7c0,0-10.9,1.9-16.1,8.6
		c-0.3,0.5-0.5,0.7-0.5,0.7c0.2-0.3,0.4-0.5,0.5-0.7c1.4-1.9,4.8-7.4,4.8-13.6c0-2-4.7-2-13.7,4.7c0,0,0,1-5.7,3
		c0,0,3.7-20.3-8-28.7c0,0-11.9,7.5-19.2,21.3c0,0,0.2-15.7-7.2-20c0,0-6.4,12.7-5.5,19.3c0,0-16.6-14.4-23.2-19.5
		c0,0-3,17.6,0.2,23.4l-8.1-2.5c0,0-3.8-9.3-3-18.3c0.8-8.9-4.3-8.3-13.9,0.7c0,0,1.4-8.1-0.6-12.5c0,0,9.3-3,8.7-8.6
		c0,0-23.1-27.4-31.6-29.4c0,0,25.1-3.1,33.6,5.4c0,0-5.9-22-23.1-26.8c0,0,19.8-0.3,27.7-6.2c0,0-16.1-9.9-25.7-7.6
		c0,0,8.2-11.3,22.9-10.2c0,0-3.4-16.1-38.9-7.6c0,0-10.2,6.2-4.8-4.5c5.4-10.7,13.8-25.7,27.1-24.6c0,0-17.2-11.9-24.3-8.5
		c0,0,3.7-5.9,4.2-12.7c0,0-22.3,13.8-23.4,18.3c0,0-0.6-7.3-9.3-4.2c0,0,1.4-11.3,2.5-16.1c0,0,11-3.1,12.4-13.3
		c0,0-23.1,1.1-35,13.8c0,0,8.2-26.2,10.2-33.6c0,0-27.4,17.5-33,31.3c0,0-9-14.7-9.6-26.8c0,0-5.9,9.3-6.2,16.4
		c0,0-15.2-20.3-25.1-23.4c0,0-4.2,0.6-6.2,1.7c0,0-12.4-26.8-26-31c0,0,42.1,0.3,46.9-6.8c0,0-15.2-23.4-31.3-23.7
		c0,0,23.1,0,31.9-8.5s-6.8-13.5-3.4-22c3.4-8.5-33.9-18.6-70.6-13c0,0,2-4.2,3.7-8.7c0,0,35.8-15.8,55.6-50c0,0-29.4,13.5-48,23.7
		c0,0,26.2-29.1,26.2-45.2c0,0-10.4-4.2-27.1,6.5c0,0,16.1-16.1,13.3-28.2c0,0-23.4-2.5-38.7,15.8c0,0,3.4-17.5-5.6-27.4
		c0,0-7.3-2.3-10.4,4.8c0,0,10.4-29.4-11.9-37c0,0-25.1,25.4-29.9,45.2c0,0-0.8-31.3-13.5-42.9c0,0-15.5,33.9-16.9,46.3
		c0,0-1.1-4.2-4.8-4.8c0,0-6.2-31.9-22.9-44.6c0,0-16.7,39.8-13,54.2c0,0-7.3-2.8-8.5-0.8c0,0-2.3-37.3-19.2-40.1
		c0,0-6.5,22.3,1.4,33c0,0-29.4-15.5-41.8-12.4c0,0,15.5,35.3,25.1,42.9c0,0-2.3,3.4-11.6,3.7c0,0-20.6-21.2-25.4-34.7
		c0,0,18.6,59.8,29.4,66c0,0-52.5-11-67.5-6.8c-15,4.2,38.7,47.1,38.7,47.1s-7.3-3.1-18.9,4.5c0,0,7.6,12.4,24.6,15.8
		c0,0-5.6,5.9-10.2,15c0,0,4.8,8.7,14.4,7.9c0,0-1.7,6.8-1.1,12.7c0,0-7.3-1.7-10.4,7.1c0,0-2.5-8.7-7.3-14.4c0,0-7.3-4.2-11,3.7
		l-7.6-10.7c0,0-8.3,3.4-8.3,14V1080h1920C1917.5,1061.5,1837.9,1014.2,1819.8,1009.8z"/>
	<linearGradient id="sun1_1_" gradientUnits="userSpaceOnUse" x1="1378.0208" y1="1175.5671" x2="1199.835" y2="165.0252">
		<stop  offset="0" style="stop-color:#D1FDFF"/>
		<stop  offset="0.2057" style="stop-color:#D8F8EE"/>
		<stop  offset="0.611" style="stop-color:#EAEAC2"/>
		<stop  offset="1" style="stop-color:#FDDB92"/>
	</linearGradient>
	<path id="sun1" class="st4" d="M1920,378.1c0,0-3.9-6.7-8.3,0.3c0,0,0-11.8-2.9-14.6c0,0-9.5,5.1-14.3,19.7c0,0-8.6-24.8-17.2-22.5
		c0,0-5.7,11.4-5.4,18.7c0,0-1.9-16.8-10.5-17.2l-7.6,6.4l-5.1-1.9c0,0,1.6-11.4,0.6-16.2c-1-4.8-1-4.8-1-4.8s31.4-3.2,35.9,0.6
		c0,0-12.1-23.2-23.8-28.9c0,0,19.1-9.5,38.1-22.5c0,0,6.4-2.9,10.8-3.8c0,0-21-15.6-28.6-15.6c0,0-4.1-8.6,23.8-5.7
		c0,0-13.7-10.8-23.2-13.3c0,0,28.3-42.9,29.9-54.6c0,0-44.3-1.2-52.6,6.8c0,0,21.8-22.1,46.2-30.4c0,0-16.1-4.8-22.9-3.4
		c-0.5,0.1-0.9,0.2-1.2,0.4c-5.8,2.5,18.3-13.6,24.8-12.5c0,0-15.1-6.3-28.1-1.3c0,0,15.6-18.3,16.8-24.6c0,0-29.4-1.8-37.4,7.3
		c0,0,6.5-19.8,6.8-30.9l0.3-6.8c0,0-46.4,26.1-51.4,39.1c0,0-1.3-52.2,5-62c0,0-24.5,16.4-36.7,47.5c-0.2,0.4-0.3,0.8-0.5,1.2
		c-12,31.9-3.3-69.5-3.3-69.5s-46.2,21.1-45.2,67.8c0,0-14.8-38.1-34.6-44.2c0,0,17.3,28.6,17.6,48.7c0,0,2,5-2.5,11.3
		c0,0-25.6-58-57.5-56c0,0,14.6,10.3,14.8,55.7c0,0-0.5,9.7,3.2,14.3c0,0,0,0,0,0c0,0,0,0,0,0c-1-1.2-31.3-39.9-56.7-39.1
		c0,0,6.5,27.4,37.7,63.2c0,0-50-15.6-70.3-36.5c0,0,10.8,27,23.7,35.2c0,0-23.7-4.1-33.1,3.4c0,0,24.3,13.5,31.1,15.6
		c0,0-21,0.7-27,4.1c0,0,10.8,10.8,38.5,19.6c0,0-23,0.7-32.5,12.8c0,0-8.1-2-17.6,5.4c0,0,6.1,1.4,10.8,2.7c0,0-16.2,4.1-14.9,11.5
		c0,0,33.1,3.4,43.9,8.8c0,0-24.3,11.5-39.9,24.3c0,0,41.9,6.1,55.4-3.4c0,0-29.8,12.7-38.9,25.2c-3.6,5,35.7,11.3,43.7,16.8
		c8.1,5.5-0.8,14.6-2,16.6c-5.4,8.8-54.9-39.1-83.3-7.3c0,0-31.1,39.2-47.3,57.5c0,0-36.5,67.6-51.4,100.1
		c-14.9,32.5-1.4,3.4-1.4,3.4s-8.3,27.8-21,35.5c12-5.1,47.7-21.4,68.3-40.9c25-23.7,47.3-14.2,67.6-29.7c20.3-15.6,69-37.2,69-90.6
		c0,0,8.8-7.4,27-3.4c0,0,3.4,24.3,16.2,32.5c0,0,9.5-16.9,13.5-18.3c0,0,30.5,26.4,36.4,34.8c0,0,2.5,25.1,2,30
		c0,0-66.9,40.8-80.6,51.1c0,0,63.4,0,80.6-5.9c0,0,8.4,20.2,10.8,106.7c0,0-6.9-6.9-13.3-10.8c0,0,7.2-4.4,8.8-10.4
		c0,0-14.3-7.9-20.7-3.1c0,0,7.1-23.6,5.1-30.7c0,0-3.8-1.5-6.2,4.2c0,0,1.3-14.1-3.5-19.2c0,0-4,6.6-9.5,11.7c0,0-7.3,4.9-11.5,6.4
		c0,0,2-10.2-0.9-16.3c0,0-1.5-13.9-5.1-18.8c0,0-6.4,2.2-7.9,11.3c0,0-8.8-7.7-17.2-6.2c0,0,2,6-0.2,9.3c0,0-5.5-1.5-8.2-0.4
		c0,0-4,0-2-7.1c0,0-11.7,4.3-2.6,29c0,0-0.3,5.7,3.2,12.7c0,0-13.9-1.3-19,2.8c0,0-1.9-1.6-12.3,0.3c0,0-1.9,2.2,4.4,6.6
		c0,0-33.4,8-49.2,47.7c0,0-2.4-1.4-4.7-1.2c0,0-0.5-15.6-0.2-17.7c0,0,1.9-5.4,0.9-9c0,0,4.5,0.5,6.9,0.7c0,0,0.5-10.4,0.2-11.4
		s5.9,1.2,8.5,0.9c2.6-0.2-0.2-17.3-0.2-17.3c-0.2-1.7,14,2.4,17.5-0.7c3.5-3.1-3.1-19.2-3.1-19.2s2.4,0,8.8-6.6
		c0,0,4.5-9.5,5.2-11.1s-13-6.6-21.1-5.2c0,0,6.6-11.8,4.3-17.7c-2.4-5.9-1.4-2.1-1.9-4s-7.3,5.9-7.3,5.9s0.2-10.2-1.7-13
		c-1.9-2.8-6.4,0-6.4,0l-3.1-10.9l-5.4,7.1c0,0-1.7-9.7-7.6-13.2c-5.9-3.5-12.1,14.9-12.1,14.9s-4.3-9-9-11.4s-7.8,11.4-7.8,11.4
		s-14.9-9-18.5-6.9c-3.5,2.1-1.9,15.4-1.9,15.4s-21.1-0.7-23.4,2.8c-2.4,3.5,5.9,15.1,5.9,15.1s-10.4,1.4-14.4,5.4
		c-4,4,6.2,10.2,14.9,12.5c0,0-13-1.2-22.2,3.8c0,0-1.9,9,4.7,13.5c0,0-5.3,10-5,16.2c0,0,12.9,3.2,16.4,3.2c0,0-9.4,9.4-10.8,15.2
		c0,0,21.6-0.3,25.4-2.6c0,0-9,16.8-5.9,24.6c0,0,15.7-15.5,27.1-15.2c0,0,0.4,2.7,5.8,4.2c0,0,7.1-6.3,12.3-6.1
		c0,0,0.8,5.8,6.3,7.9c0,0,4.8,0,7.3-0.8v23.4l-7.5-4.7l-0.9,4.9c0,0-8.8,4.2-12.6,8.4c0,0,5.1,4.9,5.8,6.7c0,0-5.6,8.6-1.9,14
		c0,0-8.1-2.1-16.3,6.3c0,0-4,3.7-8.8,5.1c0,0,5.8-14.9,0.9-26.1c0,0,2.1-6.7-5.8-10.7c0,0-10.8,14-8.4,7.7c0.6-1.7,4-17.3,0.2-21.2
		c0,0-8.2,0.9-10.7,8.7c-0.1,0.4-0.2,0.6-0.2,0.6c0.1-0.2,0.1-0.4,0.2-0.6c0.5-1.9,1.4-7.8-8.1-10.3c0,0-7.7,4.9-6.3,15.1
		c0,0-2.1-2.8-4,1.4c0,0-7-15.8-16.8-16.1c0,0-7.4,0.7-1.6,15.8c0,0-8.1,1.6-11.2,0.2c0,0-5.1-1.9-8.6-6.5c0,0-8.4,10,1.9,17
		c0,0-15.6-3-24.9,0.7c0,0-1.4,2.3,2.6,6.3c0,0-8.4-2.1-12.6,6c0,0-8.6-7.7-17.9-5.6c0,0-1.2-3.1-4.5-2.8c-1.1,0.3-1.8,0.4-1.8,0.4
		c0.6-0.3,1.2-0.4,1.8-0.4c3.4-1,10.8-3.6,14.5-8.9c0,0,3.3-5.4,3.3-6.3c0-0.9-7-5.4-12.3-2.8c0,0,3.3-15.1-0.5-20.9
		c0,0-17.4-4.2-24.4,1.2c0,0,2.1-14.2-1.6-19.1c0,0-7.9-5.5-15.7,9.2c0,0-1.2-9.8-11.5-13.5c0,0-10.6,4.5-10.6,11.5
		c0,0-2.7-6.9-8.8-7.9c0,0-5.8-2-4.3,7.3c0,0-2.3-4.3-11.8-1.3c0,0-5.7,5.4-4.2,10.3c0,0-1.8-3.1-5.9-0.9c0,0-0.5,7.6,0.7,8.9
		l-7.7,0.7c0,0-4.5,9.2,1.4,15.6c0,0-18.3,1-23.7,8.9c0,0,6.8,4.9,12.3,7.7c0,0-4.4,2.7,3.9,12.3c0,0-1,1.7,3.7,6.4
		c0,0-3.9-1.2-5.4,3.9c0,0,1,3.5,3.3,5.4c0,0-5.1-2-7.8,1c0,0-2-1.2-7.7,0.2c0,0,2.5-5.5,0.7-20.7c0,0-10.9-8.1-18.8,7.9
		c0,0,0.8-26.2-5.3-31c0,0-0.9-3.9-0.7-8.3s0.2-1.1,0.2-1.1s2.8-13.9-4.8-20.9c0,0-1.7,0.4-2.6-5.2c0,0-0.2-4.4-6.5,0
		c0,0-9.7-34.6,4.1-41.4c13.8-6.7-7.8-1.8-7.8-1.8s0.7-13.8,5-20.2c0,0-12,2.1-17.3,11.3c0,0,5-17-2.1-25.1c0,0-8.5,7.1-10.3,16.3
		c0,0-8.1,0.4-9.6,1.4c-1.4,1.1,0.4-12.4-3.5-17.7c0,0-11.7,6.7-10.3,16.6c0,0-13.4-13.1-32.6-14.5c0,0,4.2,6.7,5.3,13.1
		c0,0-5.7-7.1-12.4-4.6l0.7,6c0,0-5.7,0.7-10.6-7.8c0,0-11.3,1.4,1.1,29.7c0,0,0,2.8-11,3.9c0,0-1.8-12.7-19.8-9.6
		c0,0-10.6,1.4-15.6,7.4c0,0,5.7-1.1,11.3,3.2c0,0-1.4,8.9-7,13.5c0,0-7,0.7-11.3,0.1c-6.2,8.5,22.8,12.9,15.1,20
		c-3.6,3.3-25.7,9.3-40.5,28.9c-8.2,10.8-29.6-2.4-35.8,7.9c-5,8.3-9.1,42.8-10.4,48.4c-2,8-44.6,6.9-53.6,9.9
		c-5.7,1.5,14.8,21,9.6,23.6c-15.4,7.6-9.7,8.1-11.2,26.1c-24.9,1.8-35.9-11.7-56.6,1.5c-14.2,9.1-27.2,54.1-39.4,65.9
		c-6.3,5.9-30.3,0-35.9,6.4c-12.9,14.6-20.9,39.9-29.8,56.6c-14.9,27.8-48.9,48.2-52.1,80.5c-1.4,18.5-65.8,111.3-63.2,129.7H1920
		L1920,378.1z"/>
	<linearGradient id="seb_1_" gradientUnits="userSpaceOnUse" x1="1236.2817" y1="1129.7195" x2="1056.0596" y2="107.6289">
		<stop  offset="0" style="stop-color:#D9ADC2"/>
		<stop  offset="0.2703" style="stop-color:#CABDCA"/>
		<stop  offset="0.7079" style="stop-color:#B7D2D5"/>
		<stop  offset="1" style="stop-color:#B0D9D9"/>
	</linearGradient>
	<path id="seb" class="st5" d="M963,204.7c0,0,0-21.3,7.7-24.2c0,0-1.9-36.7,41.5-48.3c0,0,50.2-29,87.9-31.9
		c0,0,143,7.7,164.2,27.1c0,0,49.3,37.7,64.7,89.8c0,0,7.4,54.1,3.4,61.4c0,0-0.3-35.5-4.3-39.4c0,0,4.9,45.2-3.1,50.4
		c0,0-4,9.2-0.9,12.5c0,0-6.7,3.7-3.7,15c0,0,3.4,11.6,3.7,21.4c0,0-7-9.5-8.6-9.8c0,0,8.3,16.2,4.3,23.5c0,0-0.9-4.3-5.2-7.9
		c0,0,3.1,17.4,1.2,22c0,0,2.8,64.8-4.9,71.8c0,0-23.7,29.9-20.8,42.5c0,0-6.1-16.6-3.2-22.4c0,0-9,4-9,14.4l3.6,12.3
		c0,0,13-0.4,17,0c0,0,9.9,19.3,9.9,33.7c0,0,89.7,57.2,104.1,82.2c0,0,111.1,455.4,105.5,479H934.9c0,0,29.4-296.9,65.2-369
		c21.9-44.2,79.7-80.4,112.9-151.2c0,0-9.1-13.2-12.6-17.5c0,0,0-16.4-4.3-17.2c0,0-18.7,5.6-23.8,9.3c0,0-28.7,3.7-40.8-4.4
		c0,0-18-15.4-10.7-40c0,0-5.9-9.9-9.6-11.4c0,0-5.9-12.1,1.5-15.8l1.4-0.4c0,0,0.2-0.8-3.6-2.3c0,0-13.7-4.1-13.7-7.9
		c0,0-1.4-4.4,1.7-9.2c0,0,3.5-17.3-11.2-13c0,0-15.7,0.4-17.8-4.9c0,0-10.1-10.8,1.5-27.9c0,0,11.5-27.3,13-31.5
		c0,0,7.2-15.9,8.1-18.3c0,0,4.5-1.8-11.1-18.6c-15.6-16.8,1.8-72.4,0.9-84.4c0,0-7.3-4.6-7.3-10.1c0,0-3.5-4-4.8-7
		c0,0-2.2,3.5-2.7,6.2c0,0-0.2,27.3,7.7,36.6c0,0-10.1-19-11.7-28.2c0,0-20.2,67.4,16.5,116.7c0,0-44.7-56.9-19.4-132.1
		C960,226.6,959.8,211.9,963,204.7z"/>
	
		<linearGradient id="hand-s1_1_" gradientUnits="userSpaceOnUse" x1="931.9633" y1="1009.1852" x2="844.775" y2="514.7158" gradientTransform="matrix(0.9397 0.342 -0.342 0.9397 265.1653 -210.1746)">
		<stop  offset="0" style="stop-color:#D9ADC2"/>
		<stop  offset="0.2945" style="stop-color:#D5B1C4"/>
		<stop  offset="0.6078" style="stop-color:#C9BECB"/>
		<stop  offset="0.9286" style="stop-color:#B5D3D6"/>
		<stop  offset="1" style="stop-color:#B0D9D9"/>
	</linearGradient>
	<path id="hand-s1" class="st6" d="M764.8,623.6c0,0,0.4-13.5-0.2-16.1c0,0,3.3-10.8,4.4-14.1c0,0,10-19.1-3.4-25c0,0-5.2-1.2-7.1,0
		c0,0-3.3,16.6-6.1,18.6c0,0-3.8,0.4-6.4,8.3l-1.9,7.4c0,0-11-13.3-24.4-12.7c0,0-2-7.7-1.8-9.5c0,0-0.2-2.3,0.4-4.6
		c0,0,6.2-19.8,5.3-22.1c-0.9-2.3-7.5-20.4-20.3-12.8c0,0-1.2-1-1.1,10.3c0,0-1.8,13.8-1.9,16.3c0,0-2.9,5.8-3,8
		c0,0-0.6,7.5-1.6,10.1c0,0-6,26.5-6.3,28.7c0,0-7.4-4.7-8.9-5.7c0,0-1.9-3.2-1.4-4c0,0,0-26.9-5.8-33.5c0,0,4.8-35.9,0-40
		s-11.3-13-21.5-4.5c0,0-1.5,5.5-1,8.6c0,0,2.2,17.2-0.6,21.8c-2.8,4.7-1.4,17.9-1.8,22.4s-1.1,6.8-1.1,6.8s-7.2-9.8-9.9-13
		c0,0-2.3-3.8-2.9-6.2c-0.6-2.4-12.9-21.7-17.2-23.7c-4.3-2-15.8-9.7-24.6-1.9c0,0-2.6-0.4-2.5,0.3c0,0,5.1,14.9,11.9,22.6
		c0,0,3.6,4.8,3.4,6.9c0,0,18.5,50,28,63c0,0,0.7,4.9,2.7,6c0,0,9.6,3.8,14.1,5.8c0,0,16.6,13.1,30.3,20.4
		c13.6,7.3,20.3,30.2,31.9,36.3c0,0,53.5,32.1,74.6,60.1c0,0,9.6,19,13.7,24.2c0,0,17.1,37.6,23.7,53.6
		c5.9,14.4,102.4,239.1,102.4,239.1h161.5c0,0-167.1-256-173-269.6c-7.7-17.5-14.4-24.2-19.3-36.8c-1.4-3.7-7.5-18.2-6.6-25.3
		c0,0,1.8-10.1-1.9-19.6c-3.7-9.5,1.4-17.9-5.3-27.5c-6.7-9.6-23.8-37.1-68.2-40.7c0,0-30.9-21.4-39.7-25.1
		C774.1,635.3,767.9,624.7,764.8,623.6z"/>
	<linearGradient id="lily2_1_" gradientUnits="userSpaceOnUse" x1="762.9875" y1="1080" x2="762.9875" y2="502.174">
		<stop  offset="0" style="stop-color:#E2D7F2"/>
		<stop  offset="1" style="stop-color:#F1F2D4"/>
	</linearGradient>
	<path id="lily2" class="st7" d="M1319.8,798.7c-6.2,3.3-12,7.4-17.2,12.4c-4-7-11-2-16-3c-2,0,0,3-1,5c-2-7-1-16-9-17
		c5-2,10-3,14-7c-13-4-32,8-31,22c-8,0-14,5-21,9c8-12-1-28-1-41c0,5,1,10-4,13c-19,10-39,6-59,11c-4.9,1-6.9-5.6-12.5-6
		c-0.2,1-0.3,2-0.5,3c0-1,0-2,0-3c0.2,0,0.3,0,0.5,0c0.8-5,1.7-10,2.5-15c-14,3-31,12-32,27c-6-4-15-9-14-16c0-3,6-11,2-10
		c-8,1-15,8-25,9c0-34.2-29.9-56.5-47.1-83.4c-5.5,2-11.2,5.8-12.2,13.1c0,0-2.2-29.1-22-26.2c0,0-21.7-3-12.7,59.4
		c0,0-29.5-16.1-53.1,14.6c0,0,28.2,5.3,30.7,14.2c2.4,8.9-36.8-21.4-61.5,9.3c-24.7,30.8,37.6-9.7,46.1,7.3
		c0,0-25.9,10.5-24.3,20.2c1.6,9.7,2.8-4,14.6,8.9c11.7,13,23.9,18.6,23.1,25.9c0,0-39.3,4.5-44.9,19c0,0-1.7,9.5,12.3,15
		c0,0-27.5,1.7-29.3,17.8c0,0-23.5-36.8-38.2-33.9c-14.6,2.9-19.2,36.5-19,38.2c0,0-27.3-5.5-30.4,3.4c0,0-19-0.3-19.2,16.4
		c0,0,16.1-18.7,22.1,2c0,0,25,33,34.5,40.5c0,0-45.1-6.6-55.1,30.2c0,0,21.8,9.2,25,16.4c0,0-11.8,6.6-7.2,21.8
		c0,0-16-27.9-36.3-13.6c0,0-8.3-17-20.3-9.3c0,0,16.7,2,4,20.3c0,0-2.7-14-19-3.7c0,0-5-30-31.7-24c0,0-7-12.7-23.7-8.3
		c0,0,7.3-10.7-20.3-12.3c0,0,50-28.7,42-57c0,0-22,0.7-42,22c0,0-4.8-29,12.1-37.1c0,0,2.3-5.6-11.6-6.2c0,0-8.7-8.2-21.7-4.5
		c0,0-16.9,11.9-17.2,17.8c0,0-3.1-24.6-9-25.7c-5.9-1.1,7.1-42.9,5.6-50.8c-1.4-7.9,11.9-11.3,15.8-33.6c4-22.3,13-6.8,13-6.8
		s-2.3-22.9-26.5-13.3c0,0-6.5,8.2-7.9,15c0,0,9.9-38.7-38.1-38.9c0,0,5.9-19.5,13.8-21.7c0,0,5.9-5.6,9.3-4.2
		c3.4,1.4-18.1-21.2-60.4,3.7c0,0,1.4-50.5-34.5-46.9c0,0-19,37.3-26.3,37.1c0,0,3.4-27.5-30.7-29.3c0,0,6.4-18.4,14.4-17.8
		c0,0,1.4-8-6.4-12.8c0,0,6.6-16.4,19.4-15.8c12.8,0.6-23-20.8-42.9,4c0,0-4.8-9.2,3-12.4c0,0-17-4.2-25.7,11.6
		c0,0-21-25.1-34.9-26.1c0,0-5.2-34.3,10.8-43.1c0,0,7.4-13.2-7.6-13.8c0,0,1.4-18.4-12.6-1.8c0,0-16.8,2.2-21.8,26.9
		c0,0-4.5-9.6-10.1,5.2c0,0-5.9-7-17.4,0c0,0-2.2-17.4-27-10c0,0-0.7-37-3.3-41.1c-2.6-4.1,8.9-52.9-19.2-61.8
		c0,0-15.3,27.6,10.4,64.4c0,0,8.5,5.2,5.5,38.5c0,0,0.7,29.2-7.4,32.2c0,0-25.5-14.8-54.7-2.2c0,0-4.1-7-9.6-5.5
		c0,0-50.9,12.6-49.1,11.1c1.8-1.5,9.5-29.7,9.5-29.7s24.2-58.9,15.2-79.1c0,0-6.7-4.4,1.8-11.8c0,0-16.6-0.7-20,14.8
		c0,0-36.8-22.6-44.9-13.4c0,0,2.7,19.7,8.7,29.3c0,0-32.3-18.4-47.1-0.2c0,0,11.2,34.3,15.7,34.3c0,0-50.7,1.8-31.4,30.7
		c0,0,76.2,3.8,80.9,10.4c2,2.8,2.4,34.2-11.1,50.8c-18.1,22.2-51.8,30.8-51.8,30.8S102.7,672,69.2,672c0,0-14.6,12.3-14.6,23.1
		c0,0-1.9-12.3-10.8-12.3l-9.4,2.4c0,0,7.1-29.7-2.4-39.6l-3.3,8.5c0,0-11.1-28.8-28.7-25V1080l1526-4.9
		C1522.8,940.7,1329.1,925.5,1319.8,798.7z"/>
	<linearGradient id="lily1_1_" gradientUnits="userSpaceOnUse" x1="960" y1="1080" x2="960" y2="502.174">
		<stop  offset="0" style="stop-color:#E9DEFA"/>
		<stop  offset="0.2638" style="stop-color:#F1EBED"/>
		<stop  offset="0.6476" style="stop-color:#F8F8DF"/>
		<stop  offset="1" style="stop-color:#FBFCDB"/>
	</linearGradient>
	<path id="lily1" class="st8" d="M0,864c0,0,24-14,40,10c0,0-41,21-40,36v27c0,0,27-14,49,13c0,0-14-45,47-51s37-10,37-10
		s-69,2-82-38c0,0,21-34,56-26c0,0-18-16-13-30s30-13,50-8c0,0-15-23,32-42l21,13c0,0,9-24,16-25s-37,0-37,0s-13-9,14-25
		c0,0-28-19-29-31c0,0,47-7,70,6c0,0-6-41,29-60c0,0,32,14,38,36c0,0,0-22,18-22c0,0-4-30-16-30c0,0,24.5-11.3,40.5,17.1
		c0,0,8.6-22.7,32-17.9l4.2,23.3c0,0,13.7-0.6,16.9,4.2c0,0,25.6-33.9,41.6-28.9c0,0-1.9,12-11.5,25.8c-9.6,13.7-5.1,18.2-5.1,18.2
		s41.9-40.6,49.2-0.3c0,0-13.1-10.6-21.7-8.3c-8.6,2.2-17.9,5.4-19.5,8c-1.6,2.6-2.2,5.4-4.2,11.2c-1.9,5.8-2.2,10.6-6.4,14.4
		c-4.2,3.8-6.1,6.1-6.1,6.1s5.1,8.3,4.2,20.8c0,0,23.3-27.5,42.5-29.4c0,0,12.8,10.6,15.3,19.8c0,0,6.7-2.9,7.7-6.7
		c0,0,7.7-29.1,19.2-31.3c0,0,7.7-0.1,9,24.1c0,0,9-2.8,10.2,0v-10.3c0,0-4.8-2.9-4.8-4.5c0-1.6,2.9-6.7,2.9-6.7l6.4,1.9v9.3v12.5
		l6.7,4.2c0,0,11.5,10.2,14.1,16.9c0,0,6.4-10.2,3.5-15.3s-10.2-3.5-4.5-18.5c5.8-15,27.8-16.3,27.8-16.3s-2.9,14.1,5.1,15.3
		s16.3-4.5,30.4-0.3c0,0,10.6-6.4,20.8-4.2c0,0-10.2-17.3-21.4-17.6c-11.2-0.3-1.3-6.1,8.6-4.8s15.3,6.7,15.3,6.7s4.5-4.2,10.9-1.6
		c0,0,6.4-14.7,22.1-9.3l12.1,9.8v-4c0,0-33.9-27.9-13.4-51.3l3.2-1.6l-1-5.6c0,0-7.4,1.2-8-4.6c-0.6-5.8,10.2-4.4,12.2,0
		c2,4.4,2.4,8.2,2.4,8.2s20.6-3.2,18.8,15.6c0,0-4.6,5.4-7,3.6c-2.4-1.8-2.8-6.4-1-7.2c1.8-0.8,1.2-8.2-7.6-6.2c0,0-8.2,13,18,25.3
		c0,0,18.2-6.9,25.2,1.3c0,0,46.9-3.9,44.3,26c0,0-5.2-3.4-17.9,10.1c0,0,6.7,5.2,1.5,13.1c0,0-22,1.5-33.3,2.2c0,0,7.8,8.2,9,11.6
		c1.1,3.4,43.7,9.3,47.5,49c0,0,24.7-70.3,77-50.1c0,0,19.1,13.8,16.8,26.9c0,0,21.3,0.7,23.2,15.3c0,0,2.2-29.1,22-26.2
		c0,0,21.7-3,12.7,59.4c0,0,29.5-16.1,53.1,14.6c0,0-28.2,5.3-30.7,14.2c-2.4,8.9,36.8-21.4,61.5,9.3c24.7,30.8-37.6-9.7-46.1,7.3
		c0,0,25.9,10.5,24.3,20.2c-1.6,9.7-2.8-4-14.6,8.9c-11.7,13-23.9,18.6-23.1,25.9c0,0,39.3,4.5,44.9,19c0,0,1.7,9.5-12.3,15
		c0,0,27.5,1.7,29.3,17.8c0,0,23.5-36.8,38.2-33.9c14.6,2.9,19.2,36.5,19,38.2c0,0,27.3-5.5,30.4,3.4c0,0,19-0.3,19.2,16.4
		c0,0-16.1-18.7-22.1,2c0,0-25,33-34.5,40.5c0,0,45.1-6.6,55.1,30.2c0,0-21.8,9.2-25,16.4c0,0,11.8,6.6,7.2,21.8
		c0,0,16-27.9,36.3-13.6c0,0,8.3-17,20.3-9.3c0,0-16.7,2-4,20.3c0,0,2.7-14,19-3.7c0,0,5-30,31.7-24c0,0,7-12.7,23.7-8.3
		c0,0-7.3-10.7,20.3-12.3c0,0-50-28.7-42-57c0,0,22,0.7,42,22c0,0,4.8-29-12.1-37.1c0,0-2.3-5.6,11.6-6.2c0,0,8.7-8.2,21.7-4.5
		c0,0,16.9,11.9,17.2,17.8c0,0,3.1-24.6,9-25.7s-7.1-42.9-5.6-50.8c1.4-7.9-11.9-11.3-15.8-33.6c-4-22.3-13-6.8-13-6.8
		s2.3-22.9,26.5-13.3c0,0,6.5,8.2,7.9,15c0,0-9.9-38.7,38.1-38.9c0,0-5.9-19.5-13.8-21.7c0,0-5.9-5.6-9.3-4.2
		c-3.4,1.4,18.1-21.2,60.4,3.7c0,0-1.4-50.5,34.5-46.9c0,0,19,37.3,26.3,37.1c0,0-3.4-27.5,30.7-29.3c0,0-6.4-18.4-14.4-17.8
		c0,0-1.4-8,6.4-12.8c0,0-6.6-16.4-19.4-15.8c-12.8,0.6,23-20.8,42.9,4c0,0,4.8-9.2-3-12.4c0,0,17-4.2,25.7,11.6
		c0,0,21-25.1,34.9-26.1c0,0,5.2-34.3-10.8-43.1c0,0-7.4-13.2,7.6-13.8c0,0-1.4-18.4,12.6-1.8c0,0,16.8,2.2,21.8,26.9
		c0,0,4.5-9.6,10.1,5.2c0,0,5.9-7,17.4,0c0,0,2.2-17.4,27-10c0,0,0.7-37,3.3-41.1c2.6-4.1-8.9-52.9,19.2-61.8
		c0,0,15.3,27.6-10.4,64.4c0,0-8.5,5.2-5.5,38.5c0,0-0.7,29.2,7.4,32.2c0,0,25.5-14.8,54.7-2.2c0,0,4.1-7,9.6-5.5
		c0,0,50.9,12.6,49.1,11.1s-9.5-29.7-9.5-29.7s-24.2-58.9-15.2-79.1c0,0,6.7-4.4-1.8-11.8c0,0,16.6-0.7,20,14.8
		c0,0,36.8-22.6,44.9-13.4c0,0-2.7,19.7-8.7,29.3c0,0,32.3-18.4,47.1-0.2c0,0-11.2,34.3-15.7,34.3c0,0,50.7,1.8,31.4,30.7
		c0,0-76.2,3.8-80.9,10.4c-2,2.8-2.4,34.2,11.1,50.8c18.1,22.2,51.8,30.8,51.8,30.8s2.4-35.4,35.8-35.4c0,0,14.6,12.3,14.6,23.1
		c0,0,1.9-12.3,10.8-12.3l9.4,2.4c0,0-7.1-29.7,2.4-39.6l3.3,8.5c0,0,11.1-28.8,28.7-25V1080H0L0,864z"/>
</g>
<g id="scene2">
</g>
</svg>
